<svg width="41" height="41" viewBox="0 0 41 41" fill="none" xmlns="http://www.w3.org/2000/svg">
<path d="M20.5013 0.00131359C9.1756 0.00131359 0 9.41594 0 21.019C0 30.3102 5.87362 38.1853 14.0139 40.9636C15.0428 41.1619 15.4144 40.5117 15.4144 39.9495C15.4144 39.4503 15.4029 38.1301 15.3952 36.3778C9.68942 37.6441 8.48753 33.5522 8.48753 33.5522C7.55344 31.1299 6.20548 30.4797 6.20548 30.4797C4.35012 29.1805 6.35283 29.2081 6.35283 29.2081C8.40809 29.3513 9.48953 31.369 9.48953 31.369C11.318 34.5847 14.2868 33.6546 15.4618 33.1134C15.6412 31.7591 16.1755 30.8278 16.7572 30.3089C12.206 29.7821 7.42018 27.9759 7.42018 19.9222C7.42018 17.6221 8.21461 15.7489 9.52797 14.2776C9.30118 13.7509 8.60669 11.6097 9.70864 8.71448C9.70864 8.71448 11.4243 8.15357 15.3465 10.8701C16.9879 10.4038 18.7305 10.1713 20.4718 10.1594C22.2144 10.1713 23.9557 10.4051 25.5971 10.8701C29.4962 8.15357 31.2106 8.71448 31.2106 8.71448C32.3113 11.6097 31.6168 13.7495 31.4169 14.2776C32.7175 15.7489 33.5119 17.6234 33.5119 19.9222C33.5119 27.9943 28.7197 29.7742 24.1633 30.2879C24.8757 30.9171 25.5433 32.211 25.5433 34.1748C25.5433 36.986 25.5177 39.2506 25.5177 39.935C25.5177 40.4815 25.8765 41.1383 26.9323 40.9268C35.1328 38.1774 41 30.2958 41 21.0177C41 9.41463 31.8244 0 20.4987 0L20.5013 0.00131359Z" fill="#B0BAC5"/>
</svg>
