<svg width="41" height="41" viewBox="0 0 41 41" fill="none" xmlns="http://www.w3.org/2000/svg">
<path d="M20.4999 0C31.8224 0 41 9.17887 41 20.5001C41 31.8213 31.8224 41 20.4999 41C9.17746 41 0 31.8211 0 20.5001C0 9.17901 9.1776 0 20.4999 0Z" fill="#B0BAC5"/>
<path d="M11.5518 28.167H15.3905V15.3724H11.5518V28.167ZM26.5066 14.9292C24.6436 14.9292 22.9767 15.6095 21.7942 17.1112V15.3303H17.9415V28.1671H21.7942V21.2253C21.7942 19.7582 23.1383 18.3271 24.8218 18.3271C26.5053 18.3271 26.9205 19.7582 26.9205 21.1894V28.1658H30.7592V20.9037C30.759 15.8593 28.3708 14.9292 26.5066 14.9292ZM13.4532 14.0938C14.5141 14.0938 15.3751 13.2327 15.3751 12.1718C15.3751 11.1109 14.5141 10.25 13.4532 10.25C12.3923 10.25 11.5312 11.1111 11.5312 12.172C11.5312 13.2329 12.3923 14.0938 13.4532 14.0938Z" fill="#16181C"/>
</svg>
